<svg width="248" height="150" xmlns="http://www.w3.org/2000/svg" style="vector-effect: non-scaling-stroke;" stroke="null">
 <defs>
  <linearGradient spreadMethod="pad" y2="0.009375" x2="1" y1="1" x1="0" id="svg_1">
   <stop offset="0.070313" stop-color="#00ff00"/>
   <stop offset="1" stop-color="#ff00ff"/>
  </linearGradient>
 </defs>
 <g>
  <title>background</title>
  <rect fill="#fff" id="canvas_background" height="152" width="250" y="-1" x="-1"/>
 </g>
 <g>
  <title>Layer 1</title>
  <path transform="translate(75.5,106.65) scale(0.005) translate(-75.5,-106.65)" id="svg_4" d="m219.909813,859.609177c-0.593865,-12.487195 -21.085417,-22.518309 -46.283192,-22.524672c-16.845345,0.006363 -31.557883,4.492209 -39.642116,11.192344c-3.799462,-1.040334 -8.173632,-1.647992 -12.835157,-1.647992c-14.552896,0.006363 -26.391892,5.748882 -26.921901,12.935779c-15.280861,2.50062 -26.340807,9.623889 -26.353578,18.08973c0,10.536965 17.158242,19.088705 38.3139,19.088705l0,-0.006363l101.372195,0c21.149273,0 38.3139,-8.55174 38.3139,-19.088705c-0.025543,-8.392667 -10.893919,-15.484121 -25.964053,-18.038826zm-12.362619,30.770993l-101.365809,0c-14.105901,-0.019089 -25.523443,-5.704341 -25.548986,-12.725803c-0.012771,-6.308817 9.259193,-11.513671 21.391928,-12.512646c1.692197,-0.136802 3.205596,-0.604476 4.195372,-1.317121c0.989776,-0.706282 1.353758,-1.581181 1.040861,-2.424266c-0.178798,-0.474036 -0.287354,-0.916258 -0.287354,-1.348935c0.025543,-3.897277 6.353722,-7.053277 14.176143,-7.059639c4.131516,0 7.771336,0.884443 10.427767,2.325641c1.487856,0.817633 3.748377,1.193044 5.919498,0.98625c2.183892,-0.209976 3.997417,-0.979887 4.776466,-2.007495c4.782852,-6.33745 16.9986,-10.85511 31.359927,-10.848747c18.505614,0.012726 33.486349,7.479591 33.531048,16.702617c0,0.509032 -0.057471,1.033972 -0.166027,1.578c-0.319283,1.647992 1.947623,3.130548 5.197919,3.432785c11.870923,1.097601 20.900233,6.254732 20.887461,12.480832c-0.031928,7.034188 -11.430314,12.719441 -25.536215,12.738529zm-43.224465,23.87997l7.145542,-3.560044c2.484018,-1.243947 2.484018,-3.260987 0,-4.504934c-2.503175,-1.243947 -6.545291,-1.243947 -9.035695,0l-7.145542,3.560044l-7.145542,-3.560044c-2.496789,-1.243947 -6.545291,-1.243947 -9.035695,0c-2.496789,1.243947 -2.496789,3.260987 0,4.504934l7.139157,3.553681l-7.151928,3.566406c-2.484018,1.25031 -2.484018,3.248261 0,4.498572c1.245202,0.598113 2.879928,0.932165 4.514655,0.932165c1.634726,0 3.269453,-0.330871 4.52104,-0.932165l7.151928,-3.560044l7.151928,3.560044c1.245202,0.598113 2.879928,0.932165 4.52104,0.932165c1.634726,0 3.269453,-0.330871 4.514655,-0.932165c2.496789,-1.259855 2.496789,-3.248261 0,-4.498572l-7.145542,-3.560044zm53.971514,-7.231438c-2.50956,-1.247129 -6.545291,-1.247129 -9.035695,0l-7.151928,3.566406l-7.151928,-3.566406c-2.496789,-1.247129 -6.526134,-1.247129 -9.029309,0c-2.490404,1.247129 -2.490404,3.251443 0,4.504934l7.145542,3.560044l-7.145542,3.560044c-2.490404,1.243947 -2.490404,3.251443 0,4.49539c1.245202,0.620383 2.879928,0.935347 4.514655,0.935347c1.641112,0 3.275838,-0.314964 4.514655,-0.935347l7.151928,-3.556862l7.151928,3.556862c1.238816,0.620383 2.873543,0.935347 4.514655,0.935347c1.634726,0 3.275838,-0.314964 4.52104,-0.935347c2.484018,-1.243947 2.484018,-3.251443 0,-4.49539l-7.151928,-3.560044l7.151928,-3.560044c2.477632,-1.243947 2.477632,-3.257806 0,-4.504934zm-100.797486,6.795579l7.145542,-3.560044c2.484018,-1.253492 2.484018,-3.248261 0,-4.498572c-2.496789,-1.253492 -6.545291,-1.253492 -9.035695,0l-7.145542,3.560044l-7.151928,-3.566406c-2.496789,-1.240766 -6.53252,-1.240766 -9.035695,0c-2.496789,1.259855 -2.496789,3.257806 0,4.511297l7.145542,3.553681l-7.151928,3.556862c-2.496789,1.253492 -2.496789,3.260987 0,4.498572c1.251587,0.620383 2.886314,0.932165 4.52104,0.932165c1.634726,0 3.263067,-0.311782 4.514655,-0.932165l7.151928,-3.560044l7.158314,3.566406c1.245202,0.620383 2.879928,0.932165 4.514655,0.932165s3.275838,-0.311782 4.52104,-0.932165c2.484018,-1.243947 2.484018,-3.251443 0,-4.504934l-7.151928,-3.556862z" fill-opacity="null" stroke-opacity="null" stroke-width="1.5" stroke="null" fill="url(#svg_1)"/>
  <path id="svg_5" d="m209.158816,54.934734c-0.814063,-30.285052 -28.903606,-54.6134 -63.444379,-54.628832c-23.091373,0.015432 -43.259122,10.894903 -54.34088,27.144665c-5.208252,-2.523111 -11.204306,-3.996855 -17.594261,-3.996855c-19.948916,0.015432 -36.177651,13.942698 -36.904181,31.372999c-20.946799,6.064726 -36.107624,23.340709 -36.125131,43.872816c0,25.555183 23.520288,46.295621 52.520181,46.295621l0,-0.015432l138.959646,0c28.99114,0 52.520181,-20.740438 52.520181,-46.295621c-0.035014,-20.354641 -14.933238,-37.553464 -35.591176,-43.749361z" stroke-opacity="null" stroke-width="1.5" stroke="null" fill="#b2b2b2"/>
 </g>
</svg>