<svg width="268" height="151" xmlns="http://www.w3.org/2000/svg" style="vector-effect: non-scaling-stroke;" stroke="null">
 <defs>
  <linearGradient spreadMethod="pad" y2="0.009375" x2="1" y1="1" x1="0" id="svg_7">
   <stop offset="0.070313" stop-color="#00ff00"/>
   <stop offset="1" stop-color="#ff00ff"/>
  </linearGradient>
 </defs>
 <g>
  <title>background</title>
  <rect fill="#fff" id="canvas_background" height="153" width="270" y="-1" x="-1"/>
 </g>
 <g>
  <title>Layer 1</title>
  <path stroke="null" transform="rotate(90.2399673461914 130.76286315917972,74.02410125732422) " id="svg_1" d="m131.137452,-55.986497c-1.529195,0 -2.889705,1.115441 -4.037624,3.138757c-1.146948,2.021652 -2.095641,4.918517 -2.885082,8.536381c-1.578661,7.234726 -2.549755,17.397872 -3.080939,29.569184c-0.530139,12.147894 -0.619481,26.292993 -0.399231,41.43504c-18.889318,13.769745 -57.200373,42.200575 -60.277939,48.54858c-4.097425,8.451646 -2.773555,18.137707 -1.122399,24.56771l62.982225,-22.778333c1.331303,29.684062 3.224222,59.084562 4.87375,82.122107c-6.15928,3.203123 -17.656657,9.527813 -20.029858,13.449844c-3.269285,5.40292 -3.269261,22.851523 -3.269261,22.851523l25.777448,-3.725415c0.607115,7.521216 0.986794,11.909799 0.986794,11.909799l0.037669,0.396019l0.203393,0l0.47456,0l0.203388,0l0.037669,-0.396019c0,0 0.378957,-4.388662 0.986789,-11.909799l25.784984,3.725415c0,0 0.000029,-17.448603 -3.269266,-22.851523c-2.374088,-3.923547 -13.879859,-10.262578 -20.037394,-13.464603c1.64612,-22.966846 3.535701,-52.254846 4.866224,-81.843275l62.24403,22.51425c1.651136,-6.430003 2.982577,-16.116064 -1.114858,-24.56771c-3.039495,-6.269438 -40.424808,-34.067924 -59.547255,-48.020607c0.228477,-15.338305 0.144494,-29.676169 -0.39171,-41.963013l0,-0.029334c-0.531453,-12.157886 -1.503582,-22.311136 -3.080924,-29.53985c-0.789215,-3.616862 -1.730186,-6.514023 -2.877546,-8.536381c-1.147929,-2.023316 -2.508424,-3.138757 -4.037609,-3.138757l-0.000029,0.000009z" stroke-opacity="null" stroke-width="1.5" fill="url(#svg_7)"/>
 </g>
</svg>