<svg width="213" height="211" xmlns="http://www.w3.org/2000/svg">
 <defs>
  <radialGradient cy="0.5" cx="0.5" r="0.6" spreadMethod="pad" id="svg_17">
   <stop offset="0.613281" stop-color="#ffff00"/>
   <stop offset="0.929688" stop-color="#0000ff"/>
  </radialGradient>
 </defs>
 <g>
  <title>background</title>
  <rect fill="#fff" id="canvas_background" height="213" width="215" y="-1" x="-1"/>
  <g display="none" overflow="visible" y="0" x="0" height="100%" width="100%" id="canvasGrid">
   <rect fill="url(#gridpattern)" stroke-width="0" y="2" x="2" height="400" width="580"/>
  </g>
 </g>
 <g>
  <title>Layer 1</title>
  <path id="svg_3" d="m162.5,57.05" opacity="0.5" fill-opacity="null" stroke-opacity="null" stroke-width="1.5" stroke="#000" fill="#fff"/>
  <path id="svg_4" d="m105.506816,51.60325c-29.52101,0 -53.42964,23.44586 -53.42964,52.39547c0,28.92965 23.90863,52.38882 53.42964,52.38882c29.49386,0 53.41606,-23.45917 53.41606,-52.38882c0.00679,-28.94961 -23.90862,-52.39547 -53.41606,-52.39547zm0,-3.50723c3.7529,0 6.78644,-2.98148 6.78644,-6.66174l0,-32.28381c-0.01358,-3.68026 -3.04033,-6.65508 -6.78644,-6.65508c-3.7529,0 -6.79323,2.98813 -6.78644,6.66839l0,32.27716c0,3.66695 3.03354,6.65508 6.78644,6.65508zm21.80483,4.24594c0.8483,0.35272 1.73054,0.50579 2.59242,0.51245c2.67385,0 5.19162,-1.55064 6.27745,-4.11285l12.59563,-29.83474c1.42516,-3.40074 -0.21038,-7.28731 -3.67146,-8.69153c-3.46787,-1.40423 -7.43794,0.2063 -8.87666,3.6004l-12.58885,29.84139c-1.43194,3.39409 0.21038,7.28732 3.67147,8.68488zm18.49304,12.11891c1.32336,1.29109 3.06069,1.94994 4.79802,1.94994s3.47465,-0.6522 4.79801,-1.94994l23.27749,-22.8469c2.65349,-2.59548 2.64671,-6.80815 0,-9.41694c-2.66029,-2.59549 -6.9561,-2.59549 -9.60282,0.01331l-23.2707,22.83359c-2.65349,2.60214 -2.65349,6.8148 0,9.41694zm12.37168,18.12845c1.07226,2.56221 3.6036,4.10618 6.26389,4.10618c0.86187,0 1.74411,-0.16637 2.5992,-0.51909l30.40325,-12.35849c3.46787,-1.40422 5.11019,-5.3041 3.67146,-8.6982s-5.402,-5.00462 -8.86987,-3.59374l-30.41004,12.35849c-3.46108,1.41088 -5.09661,5.31076 -3.65789,8.70485zm44.03721,14.71439l-32.92102,0.00665c-3.74611,0 -6.78644,2.98148 -6.77287,6.66174c0,3.68026 3.03354,6.64843 6.77287,6.64843l32.9278,-0.01331c3.7529,0 6.77966,-2.98813 6.77966,-6.65508c0,-3.68027 -3.04033,-6.66174 -6.78644,-6.64843zm-4.73694,36.7893l-30.41682,-12.33853c-3.47466,-1.41087 -7.44472,0.19966 -8.86987,3.6004c-1.43194,3.40075 0.21038,7.29398 3.67146,8.70485l30.41682,12.33853c0.85509,0.33941 1.73733,0.49913 2.59921,0.49913c2.66707,0 5.19162,-1.54398 6.27745,-4.10619c1.42515,-3.40074 -0.22395,-7.30062 -3.67825,-8.69819zm-42.0352,9.40363c-2.6535,-2.60214 -6.94253,-2.60214 -9.59603,0.00666c-2.6535,2.59548 -2.64671,6.80149 0,9.40363l23.30463,22.82028c1.32336,1.29774 3.0539,1.94994 4.79123,1.94994s3.48144,-0.6522 4.8048,-1.94994c2.6535,-2.60879 2.63992,-6.82146 0,-9.41694l-23.30463,-22.81363zm-19.21241,15.72596c-1.43194,-3.40074 -5.40201,-5.00462 -8.86988,-3.6004c-3.46108,1.41088 -5.1034,5.30411 -3.66467,8.70485l12.62277,29.81478c1.07905,2.5622 3.6036,4.10618 6.27746,4.10618c0.86866,0 1.7509,-0.15972 2.5992,-0.50578c3.46787,-1.40423 5.10341,-5.3041 3.66468,-8.71151l-12.62956,-29.80812zm-30.65435,0.68548c-3.7529,0 -6.78644,2.98148 -6.78644,6.65508l0.02715,32.28381c0,3.68026 3.04711,6.64843 6.78644,6.64843c3.7529,0 6.78644,-2.98148 6.77286,-6.65508l-0.02035,-32.29047c0,-3.66029 -3.04712,-6.64843 -6.77966,-6.64177zm-21.82519,-4.23264c-3.46108,-1.39756 -7.42436,0.20631 -8.86309,3.61371l-12.56848,29.83474c-1.42515,3.40075 0.22395,7.29398 3.68504,8.6982c0.8483,0.34606 1.72375,0.50578 2.59242,0.50578c2.66028,0 5.19162,-1.55729 6.27067,-4.11949l12.57527,-29.84805c1.43194,-3.39409 -0.22396,-7.28066 -3.69183,-8.68489zm-18.49983,-12.09228c-2.66028,-2.60214 -6.9561,-2.58883 -9.60281,0.01331l-23.25034,22.8469c-2.6535,2.60879 -2.63993,6.80815 0.01357,9.41694c1.32336,1.29109 3.0539,1.94329 4.79123,1.94329c1.74411,0 3.48144,-0.6522 4.8048,-1.94994l23.25712,-22.85356c2.63993,-2.60214 2.63993,-6.8148 -0.01357,-9.41694zm-12.37846,-18.10848c-1.44552,-3.38744 -5.4088,-4.99797 -8.86988,-3.59375l-30.39646,12.38511c-3.46787,1.41088 -5.1034,5.31076 -3.66468,8.70485c1.08583,2.56221 3.6036,4.09953 6.27067,4.09953c0.86188,0 1.7509,-0.15972 2.59921,-0.50578l30.39646,-12.38512c3.4543,-1.42418 5.09661,-5.31741 3.66468,-8.70484zm-4.38404,-21.37613c0,-3.68026 -3.03354,-6.64843 -6.78644,-6.64843l-32.92102,0.03993c-3.7529,0 -6.79323,2.98148 -6.77965,6.66174c0.00678,3.66695 3.04711,6.65508 6.78644,6.64177l32.9278,-0.03993c3.74611,0 6.78644,-2.99479 6.77287,-6.65508zm-34.99088,-30.10094l30.43718,12.3119c0.8483,0.35272 1.72375,0.50579 2.58563,0.50579c2.66707,0 5.19841,-1.54398 6.27746,-4.11285c1.43872,-3.40074 -0.21717,-7.30062 -3.69183,-8.69153l-30.4236,-12.31191c-3.46788,-1.39757 -7.43116,0.21296 -8.86309,3.60706c-1.43873,3.40074 0.22395,7.28066 3.67825,8.69154zm42.02841,-9.43691c1.32336,1.28443 3.04711,1.93663 4.78444,1.93663s3.48145,-0.6522 4.81159,-1.96325c2.6535,-2.58883 2.63992,-6.80815 -0.02715,-9.41029l-23.30463,-22.78701c-2.64671,-2.59548 -6.9561,-2.58217 -9.59602,0.01997c-2.6535,2.59548 -2.63993,6.8148 0.01357,9.41029l23.3182,22.79366zm19.18527,-15.75259c1.08583,2.55556 3.61038,4.09288 6.26388,4.09288c0.86866,0 1.7509,-0.16638 2.60599,-0.51244c3.46109,-1.41088 5.11019,-5.31076 3.66468,-8.69819l-12.64992,-29.80812c-1.43873,-3.3941 -5.41558,-4.99797 -8.87666,-3.58709c-3.46109,1.41753 -5.09662,5.31741 -3.6579,8.70485l12.64993,29.80811z" stroke-width="1.5" fill="url(#svg_17)"/>
 </g>
</svg>