<svg width="40" height="40" xmlns="http://www.w3.org/2000/svg">
 <g id="Layer_1">
  <title>Layer 1</title>
  <path stroke="#9e9e00" id="svg_1" d="m20.18752,39.42504c-10.6699,0 -19.31252,-8.62864 -19.31252,-19.28127c0,-10.65264 8.64262,-19.28127 19.31252,-19.28127c10.6699,0 19.31252,8.62864 19.31252,19.28127c0,10.65264 -8.64262,19.28127 -19.31252,19.28127z" opacity="undefined" fill="#f9f940"/>
  <path stroke="#010149" id="svg_7" d="m34.16763,19.17551l-3.62914,-3.7326l0,-8.9146l-3.1112,0l0,5.7147l-7.25947,-7.46642l-13.99981,14.39891l3.33284,-0.08167l0,14.55738l21.1858,0l0,-14.4757l3.48099,0zm-13.99981,12.39364l-6.91339,0l0,-8.53305l6.91339,0l0,8.53305zm6.71664,-3.65702l-4.54295,0l0,-4.92722l4.54295,0l0,4.92722z" fill="#0707c4"/>
 </g>
</svg>