<svg width="40" height="40" xmlns="http://www.w3.org/2000/svg">
 <g id="Layer_1">
  <title>Layer 1</title>
  <path stroke="#9e9e00" id="svg_1" d="m20.18752,39.42504c-10.6699,0 -19.31252,-8.62864 -19.31252,-19.28127c0,-10.65264 8.64262,-19.28127 19.31252,-19.28127c10.6699,0 19.31252,8.62864 19.31252,19.28127c0,10.65264 -8.64262,19.28127 -19.31252,19.28127z" opacity="undefined" fill="#f9f940"/>
  <path transform="rotate(179.955 19.9678 20.5709)" stroke="#010149" id="svg_3" d="m17.4434,10.95755l0,-2.76162l-13.72558,8.55367l13.72558,8.55375l0,-2.96327c3.72451,-0.00188 10.26315,0.34167 10.26315,2.77655c0,3.40209 -6.82884,5.21701 -6.82884,5.21701l0,2.60847c0,0 15.34012,0.56575 15.34012,-12.02114c0,-9.88876 -13.13824,-10.26035 -18.77444,-9.96343z" fill="#0707c4"/>
 </g>
</svg>