<svg width="40" height="40" xmlns="http://www.w3.org/2000/svg">
 <g id="Layer_1">
  <title>Layer 1</title>
  <path stroke="#9e9e00" id="svg_1" d="m20.18752,39.42504c-10.6699,0 -19.31252,-8.62864 -19.31252,-19.28127c0,-10.65264 8.64262,-19.28127 19.31252,-19.28127c10.6699,0 19.31252,8.62864 19.31252,19.28127c0,10.65264 -8.64262,19.28127 -19.31252,19.28127z" opacity="undefined" fill="#f9f940"/>
  <path stroke="#010149" id="svg_3" d="m16.80992,10.95813l0,-2.76162l-13.0921,8.55367l13.0921,8.55375l0,-2.96327c3.55261,-0.00188 9.78948,0.34167 9.78948,2.77655c0,3.40209 -6.51367,5.21701 -6.51367,5.21701l0,2.60847c0,0 14.63213,0.56575 14.63213,-12.02114c0,-9.88876 -12.53187,-10.26035 -17.90794,-9.96343z" fill="#0707c4"/>
 </g>
</svg>